<svg width="96" height="23" viewBox="0 0 96 23" fill="none" xmlns="http://www.w3.org/2000/svg">
<path d="M1.54426 18.0001V5.52606H9.96826V7.88406H4.35226V10.3321H9.33826V12.6361H4.35226V15.6421H10.3823V18.0001H1.54426ZM21.1003 18.0001C20.2963 16.5721 19.4263 15.1621 18.4903 13.7701C17.5543 12.3781 16.5583 11.0641 15.5023 9.82806V18.0001H12.7303V5.52606H15.0163C15.4123 5.92206 15.8503 6.40806 16.3303 6.98406C16.8103 7.56006 17.2963 8.17806 17.7883 8.83806C18.2923 9.48606 18.7903 10.1641 19.2823 10.8721C19.7743 11.5681 20.2363 12.2401 20.6683 12.8881V5.52606H23.4583V18.0001H21.1003Z" fill="#2783FE"/>
<rect x="35" y="1.00006" width="28" height="20" rx="2" fill="white"/>
<mask id="mask0_23_143" style="mask-type:alpha" maskUnits="userSpaceOnUse" x="35" y="1" width="28" height="20">
<rect x="35" y="1.00006" width="28" height="20" rx="2" fill="white"/>
</mask>
<g mask="url(#mask0_23_143)">
<path fill-rule="evenodd" clip-rule="evenodd" d="M63 1.00006H35V2.33339H63V1.00006ZM63 3.66673H35V5.00006H63V3.66673ZM35 6.33339H63V7.66673H35V6.33339ZM63 9.00006H35V10.3334H63V9.00006ZM35 11.6667H63V13.0001H35V11.6667ZM63 14.3334H35V15.6667H63V14.3334ZM35 17.0001H63V18.3334H35V17.0001ZM63 19.6667H35V21.0001H63V19.6667Z" fill="#D02F44"/>
<rect x="35" y="1.00006" width="12" height="9.33333" fill="#46467F"/>
<g filter="url(#filter0_d_23_143)">
<path fill-rule="evenodd" clip-rule="evenodd" d="M37.6666 3.00006C37.6666 3.36825 37.3682 3.66673 37 3.66673C36.6318 3.66673 36.3333 3.36825 36.3333 3.00006C36.3333 2.63187 36.6318 2.3334 37 2.3334C37.3682 2.3334 37.6666 2.63187 37.6666 3.00006ZM40.3333 3.00006C40.3333 3.36825 40.0348 3.66673 39.6666 3.66673C39.2985 3.66673 39 3.36825 39 3.00006C39 2.63187 39.2985 2.3334 39.6666 2.3334C40.0348 2.3334 40.3333 2.63187 40.3333 3.00006ZM42.3333 3.66673C42.7015 3.66673 43 3.36825 43 3.00006C43 2.63187 42.7015 2.3334 42.3333 2.3334C41.9651 2.3334 41.6666 2.63187 41.6666 3.00006C41.6666 3.36825 41.9651 3.66673 42.3333 3.66673ZM45.6666 3.00006C45.6666 3.36825 45.3682 3.66673 45 3.66673C44.6318 3.66673 44.3333 3.36825 44.3333 3.00006C44.3333 2.63187 44.6318 2.3334 45 2.3334C45.3682 2.3334 45.6666 2.63187 45.6666 3.00006ZM38.3333 5.00006C38.7015 5.00006 39 4.70158 39 4.3334C39 3.96521 38.7015 3.66673 38.3333 3.66673C37.9651 3.66673 37.6666 3.96521 37.6666 4.3334C37.6666 4.70158 37.9651 5.00006 38.3333 5.00006ZM41.6666 4.3334C41.6666 4.70158 41.3682 5.00006 41 5.00006C40.6318 5.00006 40.3333 4.70158 40.3333 4.3334C40.3333 3.96521 40.6318 3.66673 41 3.66673C41.3682 3.66673 41.6666 3.96521 41.6666 4.3334ZM43.6666 5.00006C44.0348 5.00006 44.3333 4.70158 44.3333 4.3334C44.3333 3.96521 44.0348 3.66673 43.6666 3.66673C43.2985 3.66673 43 3.96521 43 4.3334C43 4.70158 43.2985 5.00006 43.6666 5.00006ZM45.6666 5.66673C45.6666 6.03492 45.3682 6.3334 45 6.3334C44.6318 6.3334 44.3333 6.03492 44.3333 5.66673C44.3333 5.29854 44.6318 5.00006 45 5.00006C45.3682 5.00006 45.6666 5.29854 45.6666 5.66673ZM42.3333 6.3334C42.7015 6.3334 43 6.03492 43 5.66673C43 5.29854 42.7015 5.00006 42.3333 5.00006C41.9651 5.00006 41.6666 5.29854 41.6666 5.66673C41.6666 6.03492 41.9651 6.3334 42.3333 6.3334ZM40.3333 5.66673C40.3333 6.03492 40.0348 6.3334 39.6666 6.3334C39.2985 6.3334 39 6.03492 39 5.66673C39 5.29854 39.2985 5.00006 39.6666 5.00006C40.0348 5.00006 40.3333 5.29854 40.3333 5.66673ZM37 6.3334C37.3682 6.3334 37.6666 6.03492 37.6666 5.66673C37.6666 5.29854 37.3682 5.00006 37 5.00006C36.6318 5.00006 36.3333 5.29854 36.3333 5.66673C36.3333 6.03492 36.6318 6.3334 37 6.3334ZM39 7.00006C39 7.36825 38.7015 7.66673 38.3333 7.66673C37.9651 7.66673 37.6666 7.36825 37.6666 7.00006C37.6666 6.63187 37.9651 6.3334 38.3333 6.3334C38.7015 6.3334 39 6.63187 39 7.00006ZM41 7.66673C41.3682 7.66673 41.6666 7.36825 41.6666 7.00006C41.6666 6.63187 41.3682 6.3334 41 6.3334C40.6318 6.3334 40.3333 6.63187 40.3333 7.00006C40.3333 7.36825 40.6318 7.66673 41 7.66673ZM44.3333 7.00006C44.3333 7.36825 44.0348 7.66673 43.6666 7.66673C43.2985 7.66673 43 7.36825 43 7.00006C43 6.63187 43.2985 6.3334 43.6666 6.3334C44.0348 6.3334 44.3333 6.63187 44.3333 7.00006ZM45 9.00006C45.3682 9.00006 45.6666 8.70158 45.6666 8.3334C45.6666 7.96521 45.3682 7.66673 45 7.66673C44.6318 7.66673 44.3333 7.96521 44.3333 8.3334C44.3333 8.70158 44.6318 9.00006 45 9.00006ZM43 8.3334C43 8.70158 42.7015 9.00006 42.3333 9.00006C41.9651 9.00006 41.6666 8.70158 41.6666 8.3334C41.6666 7.96521 41.9651 7.66673 42.3333 7.66673C42.7015 7.66673 43 7.96521 43 8.3334ZM39.6666 9.00006C40.0348 9.00006 40.3333 8.70158 40.3333 8.3334C40.3333 7.96521 40.0348 7.66673 39.6666 7.66673C39.2985 7.66673 39 7.96521 39 8.3334C39 8.70158 39.2985 9.00006 39.6666 9.00006ZM37.6666 8.3334C37.6666 8.70158 37.3682 9.00006 37 9.00006C36.6318 9.00006 36.3333 8.70158 36.3333 8.3334C36.3333 7.96521 36.6318 7.66673 37 7.66673C37.3682 7.66673 37.6666 7.96521 37.6666 8.3334Z" fill="url(#paint0_linear_23_143)"/>
</g>
</g>
<path fill-rule="evenodd" clip-rule="evenodd" d="M94.6526 7.56072L85.1066 17.1067C84.5209 17.6924 83.5711 17.6924 82.9853 17.1067L73.4394 7.56072C72.8536 6.97494 72.8536 6.02519 73.4394 5.4394C74.0252 4.85362 74.9749 4.85362 75.5607 5.4394L84.046 13.9247L92.5313 5.4394C93.117 4.85361 94.0668 4.85361 94.6526 5.4394C95.2384 6.02519 95.2384 6.97494 94.6526 7.56072Z" fill="#2783FE"/>
<defs>
<filter id="filter0_d_23_143" x="36.3333" y="2.3334" width="9.33331" height="7.66667" filterUnits="userSpaceOnUse" color-interpolation-filters="sRGB">
<feFlood flood-opacity="0" result="BackgroundImageFix"/>
<feColorMatrix in="SourceAlpha" type="matrix" values="0 0 0 0 0 0 0 0 0 0 0 0 0 0 0 0 0 0 127 0" result="hardAlpha"/>
<feOffset dy="1"/>
<feColorMatrix type="matrix" values="0 0 0 0 0 0 0 0 0 0 0 0 0 0 0 0 0 0 0.06 0"/>
<feBlend mode="normal" in2="BackgroundImageFix" result="effect1_dropShadow_23_143"/>
<feBlend mode="normal" in="SourceGraphic" in2="effect1_dropShadow_23_143" result="shape"/>
</filter>
<linearGradient id="paint0_linear_23_143" x1="36.3333" y1="2.3334" x2="36.3333" y2="9.00006" gradientUnits="userSpaceOnUse">
<stop stop-color="white"/>
<stop offset="1" stop-color="#F0F0F0"/>
</linearGradient>
</defs>
</svg>
