<svg width="266" height="261" viewBox="0 0 266 261" fill="none" xmlns="http://www.w3.org/2000/svg">
<path d="M191.426 139.435C195.534 134.791 232.402 129.779 183.32 107.611C133.557 118.022 68.9794 126.073 56.1952 142.621C53.2661 145.458 52.1629 160.022 75.3448 166.093C89.6015 169.826 90.8767 200.24 53.4523 190.317C26.0799 183.06 32.1472 170.072 29.4794 151.046C25.6355 123.631 63.4461 106.497 78.4171 101.126C69.1863 68.1497 76.2512 85.4273 93.8183 72.3678C111.385 59.3084 126.292 75.3338 150.924 102.95C158.146 111.047 164.001 81.5292 175.6 85.5024C198.046 88.1302 231.539 78.8761 238.749 108.748C243.952 130.303 197.798 198.712 181.503 152.943C180.224 146.889 188.183 143.1 191.426 139.435Z" fill="#49B2EC" stroke="white" stroke-linecap="round" stroke-linejoin="round"/>
<path d="M191.749 142.78C195.858 138.136 232.726 133.124 183.643 110.957C133.88 121.368 69.3029 129.419 56.5186 145.966C53.5896 148.803 52.4863 163.367 75.6683 169.438C89.925 173.171 89.3174 203.181 53.7757 193.663C36.2947 188.981 28.879 177.016 25.9884 156.578C21.9886 128.296 52.071 104.12 67.042 98.7493C57.8112 65.7728 62.906 36.5162 80.4731 23.4568C98.0401 10.3974 127.968 11.3571 146.59 56.7504C150.708 66.7882 160.574 71.1119 185.134 72.6345C219.723 74.7787 243.513 81.3228 250.723 111.195C255.925 132.749 198.121 202.058 181.827 156.288C180.548 150.234 188.507 146.446 191.749 142.78Z" fill="#49B2EC"/>
<circle r="9.28684" transform="matrix(-0.472101 0.881545 0.881545 0.472101 110.435 22.5858)" fill="white" stroke="#49B2EC"/>
<circle r="3.26228" transform="matrix(-0.472101 0.881545 0.881545 0.472101 113.632 23.2534)" fill="#4A4545"/>
<path d="M92.526 52.0774C97.0679 54.5097 102.588 52.9603 104.877 48.6857C107.166 44.4112 105.397 38.9579 100.855 36.5255C96.3127 34.0931 90.7927 35.6426 88.5036 39.9171C86.2144 44.1916 87.9841 49.645 92.526 52.0774Z" fill="white" stroke="#49B2EC"/>
<circle r="3.26228" transform="matrix(-0.472101 0.881545 0.881545 0.472101 99.3947 42.6416)" fill="#4A4545"/>
<path d="M126.385 41.1723C126.43 47.0116 118.979 59.9383 108.753 60.2771M108.753 60.2771C108.877 59.5529 108.483 58.8142 108.057 58.2555M108.753 60.2771C108.61 61.1065 107.851 62.1225 107.226 62.8416" stroke="black" stroke-width="3" stroke-linecap="round" stroke-linejoin="round"/>
<path d="M82.2628 47.1302C79.3043 42.0956 80.7329 39.9855 83.3439 36.0972" stroke="black" stroke-width="3" stroke-linecap="round" stroke-linejoin="round"/>
<path d="M95.9209 18.3054C95.9104 12.466 98.2091 11.3663 102.427 9.32917" stroke="black" stroke-width="3" stroke-linecap="round" stroke-linejoin="round"/>
</svg>
