<svg width="113" height="27" viewBox="0 0 113 27" fill="none" xmlns="http://www.w3.org/2000/svg">
<path d="M64.1087 3.63089C63.9222 3.08084 63.6778 2.61413 63.1516 2.5933H63.1185H62.6793H61.8342C61.7969 2.58913 61.7555 2.58496 61.714 2.58496H61.2914C61.25 2.58496 61.2086 2.58913 61.1713 2.5933C60.7321 2.65997 60.5126 3.10167 60.3468 3.61839L53.8423 21.8992C53.8423 22.1409 54.0371 22.3367 54.2774 22.3367H55.6363C56.1748 22.3367 56.4524 21.8908 56.614 21.3533L57.9108 17.5446C58.0019 17.2821 58.2463 17.1071 58.5239 17.1071H65.7576C66.031 17.1071 66.2755 17.2821 66.3666 17.5405L67.7172 21.3908C67.8829 21.9284 68.1729 22.3742 68.7364 22.3742H70.1574C70.4102 22.3742 70.6132 22.1784 70.6132 21.9367L64.1087 3.63089ZM58.8015 14.9444L62.0827 5.32687L65.4593 14.9444H58.8015Z" fill="#76A62D"/>
<path d="M83.125 2.64266C82.951 2.57598 81.9443 2.58432 81.9443 2.58432C81.269 2.60099 80.8381 2.58432 80.5356 3.00519C80.4901 3.06769 80.4569 3.13437 80.4238 3.20104L76.3927 11.9727L72.2414 3.20521C72.2082 3.13853 72.1751 3.07186 72.1295 3.00936C71.8271 2.58848 71.3962 2.60099 70.7209 2.58848C70.7209 2.58848 69.7142 2.58015 69.5402 2.64682C69.1259 2.80517 69.3993 3.31772 69.594 3.73859L74.6858 13.9562C74.9178 14.4229 75.0379 14.9354 75.0379 15.4563V21.6235C75.0379 22.0402 75.3735 22.3778 75.7878 22.3778H76.8525C77.2668 22.3778 77.6024 22.0402 77.6024 21.6235V15.4855C77.6024 14.9646 77.7226 14.452 77.9546 13.9853L83.067 3.73442C83.2659 3.31355 83.5393 2.801 83.125 2.64266Z" fill="#76A62D"/>
<path d="M102.589 12.1856L90.367 1.8888C90.2758 1.81379 90.1432 1.81796 90.0604 1.90547L88.254 3.7973L98.2345 12.1856L88.254 20.5738L90.0604 22.4656C90.1432 22.5531 90.2758 22.5573 90.367 22.4823L102.589 12.1856Z" fill="#76A62D"/>
<path d="M111.372 12.2695L99.1501 1.97278C99.0589 1.89777 98.9264 1.90194 98.8435 1.98945L97.0372 3.88128L107.018 12.2695L97.0372 20.6578L98.8435 22.5496C98.9264 22.6371 99.0589 22.6413 99.1501 22.5663L111.372 12.2695Z" fill="#76A62D"/>
<path d="M15.8013 2.57227H14.2601C13.937 2.57227 13.6801 2.83479 13.6801 3.15565V21.7198C13.6801 22.0573 13.9536 22.3365 14.2933 22.3365H15.7765C16.1121 22.3365 16.3896 22.0615 16.3896 21.7198V3.15982C16.3855 2.83479 16.1245 2.57227 15.8013 2.57227Z" fill="#76A62D"/>
<path d="M10.2871 19.9819H3.40557V3.15956C3.40557 2.83453 3.14457 2.57617 2.82556 2.57617H1.42108C1.09793 2.57617 0.841064 2.8387 0.841064 3.15956V19.9861V21.5237C0.841064 21.9071 1.14765 22.2154 1.5288 22.2154H3.40972H10.2912C10.6227 22.2154 10.8878 21.9487 10.8878 21.6154V20.582C10.8837 20.2528 10.6144 19.9819 10.2871 19.9819Z" fill="#76A62D"/>
<path d="M51.8247 3.66389C50.9671 3.08051 49.7822 2.66797 47.516 2.66797H43.9406H43.1286C42.6065 2.66797 42.1798 3.09301 42.1798 3.62222V21.3571C42.1798 21.8988 42.6148 22.3406 43.1576 22.3406H43.9116C44.4502 22.3406 44.8893 21.903 44.8893 21.3571V14.694C45.7014 14.694 48.5103 14.694 48.8417 14.694C49.227 14.694 54.1738 13.9148 54.1738 8.49765C54.1696 6.13911 52.9682 4.44729 51.8247 3.66389ZM47.9427 12.6522C47.6858 12.6522 45.1876 12.6522 45.1876 12.6522H44.8852V4.70982H47.0644C48.56 4.70982 49.343 4.98067 49.9106 5.36821C50.6688 5.88492 51.4601 7.00169 51.4601 8.56016C51.4643 12.1396 48.1996 12.6522 47.9427 12.6522Z" fill="#76A62D"/>
<path d="M39.6733 22.778C39.5655 22.6988 39.4454 22.6405 39.317 22.5905C38.2978 22.1988 36.8105 21.1612 35.9819 20.6236C35.3397 20.2069 35.4391 19.8777 35.5261 19.7402C35.5427 19.7194 35.5634 19.6944 35.58 19.6736C35.5841 19.6694 35.5841 19.6694 35.5841 19.6694C36.9928 17.9317 37.8089 15.4565 37.8089 12.3312C37.8089 6.80574 35.4598 2.32617 29.0838 2.32617C23.2173 2.32617 20.4001 6.80574 20.4001 12.3312C20.4001 17.8567 22.2934 22.5863 29.0838 22.5863C30.4634 22.5863 31.7312 22.3196 32.8456 21.8029H32.8498C33.1771 21.6612 33.4961 21.6654 33.9352 21.9863C37.0839 24.3323 38.6458 25.1949 39.7644 25.1949C40.303 25.1949 40.2077 23.5281 40.2077 23.5281C40.2077 23.5281 40.129 23.1072 39.6733 22.778ZM23.1842 12.3729C23.1842 12.3604 23.1842 12.3479 23.1842 12.3312C23.1925 8.5809 24.5514 4.60138 29.0921 4.60138C34.2377 4.60138 35.0248 8.5809 35.029 12.3312C35.029 12.3437 35.029 12.3562 35.029 12.3729C35.029 16.8358 33.5914 20.2278 29.0921 20.2278C23.9258 20.2278 23.1842 16.1357 23.1842 12.3729Z" fill="#76A62D"/>
</svg>
