<svg width="65" height="39" viewBox="0 0 65 39" fill="none" xmlns="http://www.w3.org/2000/svg">
<path d="M64.4 19.0267C64.4 29.467 55.9112 38.0534 45.3733 38.0534C34.933 38.0534 26.3466 29.467 26.3466 19.0267C26.3466 8.58641 34.8355 0 45.2757 0C55.9112 0 64.4 8.58641 64.4 19.0267Z" fill="#F9B50B"/>
<path d="M38.9335 19.1243C38.9335 17.7583 38.7383 16.3922 38.5432 15.1238H26.8345C26.932 14.4408 27.1272 13.8553 27.3223 13.0748H37.7626C37.5675 12.3917 37.2747 11.7087 36.982 11.0257H28.1029C28.3956 10.3427 28.7859 9.75728 29.1762 8.9767H35.9087C35.5184 8.29369 35.0306 7.61068 34.4451 6.92767H30.7374C31.3228 6.24466 31.9082 5.65922 32.6888 4.97621C29.3714 1.85388 24.883 0 19.9068 0C9.56407 0.292718 0.977661 8.58641 0.977661 19.0267C0.977661 29.467 9.4665 38.0534 20.0044 38.0534C24.9806 38.0534 29.3713 36.1019 32.7864 33.0772C33.4694 32.4917 34.0548 31.8087 34.7379 31.0282H30.8349C30.3471 30.4427 29.8592 29.7597 29.4689 29.0767H36.1039C36.4942 28.4913 36.8845 27.8083 37.1772 27.0277H28.298C28.0053 26.4422 27.7126 25.7592 27.5175 24.9786H37.9578C38.5432 23.2223 38.9335 21.2709 38.9335 19.1243Z" fill="#C8191C"/>
<path d="M26.7369 23.9055L27.0297 22.1492C26.9321 22.1492 26.7369 22.2468 26.5418 22.2468C25.8588 22.2468 25.7612 21.8565 25.8588 21.6613L26.4442 18.1487H27.5175L27.8102 16.1972H26.8345L27.0297 15.0264H24.9806C24.9806 15.0264 23.8098 21.6613 23.8098 22.4419C23.8098 23.6128 24.4928 24.1982 25.4685 24.1982C26.0539 24.1982 26.5418 24.0031 26.7369 23.9055Z" fill="white"/>
<path d="M27.4199 20.6856C27.4199 23.5152 29.3714 24.1982 30.9325 24.1982C32.3961 24.1982 33.0791 23.9055 33.0791 23.9055L33.4694 21.954C33.4694 21.954 32.3961 22.4419 31.3228 22.4419C29.0787 22.4419 29.469 20.7832 29.469 20.7832H33.567C33.567 20.7832 33.8597 19.5147 33.8597 18.9293C33.8597 17.6608 33.1767 16.0021 30.9325 16.0021C28.9811 15.9045 27.4199 18.1487 27.4199 20.6856ZM30.9325 17.7584C32.0058 17.7584 31.8107 19.0268 31.8107 19.1244H29.5665C29.6641 19.0268 29.8592 17.7584 30.9325 17.7584Z" fill="white"/>
<path d="M43.7145 23.9056L44.1048 21.6615C44.1048 21.6615 43.1291 22.1493 42.3485 22.1493C40.9825 22.1493 40.2995 21.076 40.2995 19.8076C40.2995 17.3683 41.4704 16.0998 42.934 16.0998C43.9097 16.0998 44.7878 16.6852 44.7878 16.6852L45.0806 14.5386C45.0806 14.5386 43.9097 14.0508 42.7388 14.0508C40.3971 14.0508 38.1529 16.0998 38.1529 19.9052C38.1529 22.442 39.3238 24.1008 41.7631 24.1008C42.6412 24.1984 43.7145 23.9056 43.7145 23.9056Z" fill="white"/>
<path d="M15.7112 15.9043C14.3452 15.9043 13.2719 16.2946 13.2719 16.2946L12.9792 18.0509C12.9792 18.0509 13.8573 17.6606 15.2234 17.6606C15.9064 17.6606 16.4918 17.7582 16.4918 18.3436C16.4918 18.7339 16.3942 18.8315 16.3942 18.8315H15.5161C13.7598 18.8315 11.9059 19.5145 11.9059 21.8562C11.9059 23.7101 13.0768 24.1004 13.8573 24.1004C15.2234 24.1004 15.9064 23.2223 16.0039 23.2223L15.9064 24.0028H17.5651L18.3457 18.4412C18.3457 16.0019 16.3942 15.9043 15.7112 15.9043ZM16.1015 20.3926C16.1015 20.6854 15.9064 22.3441 14.7355 22.3441C14.1501 22.3441 13.9549 21.8562 13.9549 21.5635C13.9549 21.0757 14.2476 20.3926 15.8088 20.3926C16.0039 20.3926 16.1015 20.3926 16.1015 20.3926Z" fill="white"/>
<path d="M20.2971 24.1003C20.785 24.1003 23.3219 24.1979 23.3219 21.4659C23.3219 18.929 20.8825 19.4168 20.8825 18.4411C20.8825 17.9532 21.2728 17.7581 21.9558 17.7581C22.2486 17.7581 23.3219 17.8557 23.3219 17.8557L23.6146 16.0018C23.6146 16.0018 22.9316 15.8066 21.6631 15.8066C20.1995 15.8066 18.6384 16.3921 18.6384 18.4411C18.6384 20.7829 21.1753 20.5877 21.1753 21.4659C21.1753 22.0513 20.4923 22.1489 20.0044 22.1489C19.1262 22.1489 18.1505 21.8562 18.1505 21.8562L17.8578 23.71C18.0529 23.9052 18.6384 24.1003 20.2971 24.1003Z" fill="white"/>
<path d="M60.4971 14.3438L60.1068 17.0758C60.1068 17.0758 59.3262 16.1001 58.1553 16.1001C56.3015 16.1001 54.7403 18.3442 54.7403 20.9787C54.7403 22.6374 55.5209 24.2962 57.2772 24.2962C58.4481 24.2962 59.2286 23.5156 59.2286 23.5156L59.1311 24.1986H61.1801L62.6437 14.5389L60.4971 14.3438ZM59.5214 19.6127C59.5214 20.686 59.0335 22.1496 57.8626 22.1496C57.1796 22.1496 56.7893 21.5641 56.7893 20.4908C56.7893 18.8321 57.4723 17.8564 58.4481 17.8564C59.1311 17.9539 59.5214 18.4418 59.5214 19.6127Z" fill="white"/>
<path d="M4.68547 24.0035L5.85634 16.7831L6.05148 24.0035H7.4175L10.052 16.7831L8.97867 24.0035H11.1253L12.784 14.3438H9.46653L7.4175 20.2957L7.31993 14.3438H4.39275L2.73401 24.0035H4.68547Z" fill="white"/>
<path d="M35.9088 24.003C36.4942 20.6855 36.5918 17.9535 38.0554 18.4414C38.2505 17.1729 38.5433 16.5875 38.7384 16.0996H38.3481C37.47 16.0996 36.6894 17.2705 36.6894 17.2705L36.8845 16.1972H34.9331L33.6646 24.003H35.9088Z" fill="white"/>
<path d="M48.3981 15.9043C47.0321 15.9043 45.9588 16.2946 45.9588 16.2946L45.6661 18.0509C45.6661 18.0509 46.5442 17.6606 47.9102 17.6606C48.5933 17.6606 49.1787 17.7582 49.1787 18.3436C49.1787 18.7339 49.0811 18.8315 49.0811 18.8315H48.203C46.4467 18.8315 44.5928 19.5145 44.5928 21.8562C44.5928 23.7101 45.7636 24.1004 46.5442 24.1004C47.9102 24.1004 48.5933 23.2223 48.6908 23.2223L48.5933 24.0028H50.4471L51.2277 18.4412C51.2277 16.0019 49.0811 15.9043 48.3981 15.9043ZM48.886 20.3926C48.886 20.6854 48.6908 22.3441 47.52 22.3441C46.9345 22.3441 46.7394 21.8562 46.7394 21.5635C46.7394 21.0757 47.0321 20.3926 48.5933 20.3926C48.7884 20.3926 48.7884 20.3926 48.886 20.3926Z" fill="white"/>
<path d="M52.7889 24.003C53.3743 20.6855 53.4719 17.9535 54.9355 18.4414C55.1306 17.1729 55.4233 16.5875 55.6185 16.0996H55.2282C54.35 16.0996 53.5694 17.2705 53.5694 17.2705L53.7646 16.1972H51.8131L50.5447 24.003H52.7889Z" fill="white"/>
</svg>
