<svg width="68" height="22" viewBox="0 0 68 22" fill="none" xmlns="http://www.w3.org/2000/svg">
<path d="M62.9748 1.07422H58.7791C57.5107 1.07422 56.535 1.46451 55.9495 2.73296L47.9485 20.9791H53.6078C53.6078 20.9791 54.5835 18.5398 54.7786 17.9543C55.3641 17.9543 60.9257 17.9543 61.7063 17.9543C61.9015 18.6373 62.3893 20.8815 62.3893 20.8815H67.4631L62.9748 1.07422ZM56.3398 13.8563C56.8277 12.6854 58.4864 8.29461 58.4864 8.29461C58.4864 8.39218 58.9743 7.12373 59.1694 6.44072L59.5597 8.19703C59.5597 8.19703 60.633 12.9781 60.8282 13.9538H56.3398V13.8563Z" fill="#3362AB"/>
<path d="M48.3388 14.4414C48.3388 18.5395 44.6311 21.2715 38.8743 21.2715C36.435 21.2715 34.0932 20.7837 32.8248 20.1982L33.6053 15.7099L34.2884 16.0026C36.0447 16.7832 37.2155 17.0759 39.3621 17.0759C40.9233 17.0759 42.582 16.4905 42.582 15.1245C42.582 14.2463 41.899 13.6609 39.7524 12.6851C37.7034 11.7094 34.9714 10.1482 34.9714 7.31863C34.9714 3.41572 38.7767 0.78125 44.1432 0.78125C46.1922 0.78125 47.9486 1.17154 49.0219 1.65941L48.2413 5.95261L47.851 5.56232C46.8753 5.17203 45.6068 4.78174 43.7529 4.78174C41.7039 4.87931 40.7282 5.75746 40.7282 6.53805C40.7282 7.4162 41.899 8.09921 43.7529 8.97737C46.8753 10.441 48.3388 12.0997 48.3388 14.4414Z" fill="#3362AB"/>
<path d="M0.723328 1.2692L0.8209 0.878906H9.21216C10.383 0.878906 11.2612 1.2692 11.5539 2.53764L13.4078 11.3192C11.5539 6.6357 7.26071 2.83036 0.723328 1.2692Z" fill="#F9B50B"/>
<path d="M25.2141 1.07414L16.7252 20.8814H10.9684L6.08978 4.29404C9.6024 6.53821 12.5296 10.0508 13.6029 12.4902L14.1883 14.5392L19.4573 0.976562H25.2141V1.07414Z" fill="#3362AB"/>
<path d="M27.4583 0.976562H32.8248L29.4097 20.8814H24.0432L27.4583 0.976562Z" fill="#3362AB"/>
</svg>
